<mxfile host="app.diagrams.net" agent="Mozilla/5.0 (Windows NT 10.0; Win64; x64) AppleWebKit/537.36 (KHTML, like Gecko) Chrome/131.0.0.0 Safari/537.36" version="26.0.5">
  <diagram name="Trang-1" id="LuBjn9DT_3IqOGAn8t-G">
    <mxGraphModel dx="1059" dy="1774" grid="1" gridSize="10" guides="1" tooltips="1" connect="1" arrows="1" fold="1" page="1" pageScale="1" pageWidth="827" pageHeight="1169" math="0" shadow="0">
      <root>
        <mxCell id="0" />
        <mxCell id="1" parent="0" />
        <mxCell id="dt0dAXxQC4JxOoUAS6Yy-1" value="Category" style="rounded=0;whiteSpace=wrap;html=1;" parent="1" vertex="1">
          <mxGeometry x="675" y="160" width="120" height="50" as="geometry" />
        </mxCell>
        <mxCell id="dt0dAXxQC4JxOoUAS6Yy-2" value="Inventory" style="ellipse;whiteSpace=wrap;html=1;" parent="1" vertex="1">
          <mxGeometry x="545" y="90" width="80" height="40" as="geometry" />
        </mxCell>
        <mxCell id="dt0dAXxQC4JxOoUAS6Yy-3" value="ProductID" style="ellipse;whiteSpace=wrap;html=1;" parent="1" vertex="1">
          <mxGeometry x="605" y="50" width="80" height="40" as="geometry" />
        </mxCell>
        <mxCell id="dt0dAXxQC4JxOoUAS6Yy-4" value="Quantity" style="ellipse;whiteSpace=wrap;html=1;" parent="1" vertex="1">
          <mxGeometry x="695" y="40" width="80" height="40" as="geometry" />
        </mxCell>
        <mxCell id="dt0dAXxQC4JxOoUAS6Yy-6" value="LastUpdated" style="ellipse;whiteSpace=wrap;html=1;" parent="1" vertex="1">
          <mxGeometry x="775" y="60" width="80" height="40" as="geometry" />
        </mxCell>
        <mxCell id="dt0dAXxQC4JxOoUAS6Yy-7" value="" style="endArrow=none;html=1;rounded=0;entryX=1;entryY=1;entryDx=0;entryDy=0;exitX=0.5;exitY=0;exitDx=0;exitDy=0;" parent="1" source="dt0dAXxQC4JxOoUAS6Yy-1" target="dt0dAXxQC4JxOoUAS6Yy-2" edge="1">
          <mxGeometry width="50" height="50" relative="1" as="geometry">
            <mxPoint x="765" y="250" as="sourcePoint" />
            <mxPoint x="815" y="200" as="targetPoint" />
          </mxGeometry>
        </mxCell>
        <mxCell id="dt0dAXxQC4JxOoUAS6Yy-8" value="" style="endArrow=none;html=1;rounded=0;entryX=0.5;entryY=1;entryDx=0;entryDy=0;exitX=0.5;exitY=0;exitDx=0;exitDy=0;" parent="1" source="dt0dAXxQC4JxOoUAS6Yy-1" target="dt0dAXxQC4JxOoUAS6Yy-3" edge="1">
          <mxGeometry width="50" height="50" relative="1" as="geometry">
            <mxPoint x="715" y="160" as="sourcePoint" />
            <mxPoint x="623" y="134" as="targetPoint" />
          </mxGeometry>
        </mxCell>
        <mxCell id="dt0dAXxQC4JxOoUAS6Yy-9" value="" style="endArrow=none;html=1;rounded=0;entryX=0.5;entryY=1;entryDx=0;entryDy=0;exitX=0.5;exitY=0;exitDx=0;exitDy=0;" parent="1" source="dt0dAXxQC4JxOoUAS6Yy-1" target="dt0dAXxQC4JxOoUAS6Yy-4" edge="1">
          <mxGeometry width="50" height="50" relative="1" as="geometry">
            <mxPoint x="725" y="170" as="sourcePoint" />
            <mxPoint x="633" y="144" as="targetPoint" />
          </mxGeometry>
        </mxCell>
        <mxCell id="dt0dAXxQC4JxOoUAS6Yy-10" value="" style="endArrow=none;html=1;rounded=0;entryX=0.5;entryY=1;entryDx=0;entryDy=0;exitX=0.5;exitY=0;exitDx=0;exitDy=0;" parent="1" source="dt0dAXxQC4JxOoUAS6Yy-1" target="dt0dAXxQC4JxOoUAS6Yy-6" edge="1">
          <mxGeometry width="50" height="50" relative="1" as="geometry">
            <mxPoint x="735" y="180" as="sourcePoint" />
            <mxPoint x="643" y="154" as="targetPoint" />
          </mxGeometry>
        </mxCell>
        <mxCell id="dt0dAXxQC4JxOoUAS6Yy-11" value="Product" style="rounded=0;whiteSpace=wrap;html=1;" parent="1" vertex="1">
          <mxGeometry x="310" y="160" width="120" height="50" as="geometry" />
        </mxCell>
        <mxCell id="dt0dAXxQC4JxOoUAS6Yy-12" value="&amp;nbsp;ProductName&lt;span style=&quot;white-space: pre;&quot;&gt;&#x9;&lt;/span&gt;" style="ellipse;whiteSpace=wrap;html=1;" parent="1" vertex="1">
          <mxGeometry x="130.00000000000003" y="10" width="80" height="40" as="geometry" />
        </mxCell>
        <mxCell id="dt0dAXxQC4JxOoUAS6Yy-13" value="ProductID" style="ellipse;whiteSpace=wrap;html=1;" parent="1" vertex="1">
          <mxGeometry x="180.00000000000003" y="-30" width="80" height="40" as="geometry" />
        </mxCell>
        <mxCell id="dt0dAXxQC4JxOoUAS6Yy-14" value="CategoryID" style="ellipse;whiteSpace=wrap;html=1;" parent="1" vertex="1">
          <mxGeometry x="260" y="-50" width="80" height="40" as="geometry" />
        </mxCell>
        <mxCell id="dt0dAXxQC4JxOoUAS6Yy-15" value="QuantityinStoke" style="ellipse;whiteSpace=wrap;html=1;" parent="1" vertex="1">
          <mxGeometry x="350" y="-70" width="100" height="40" as="geometry" />
        </mxCell>
        <mxCell id="dt0dAXxQC4JxOoUAS6Yy-16" value="Price" style="ellipse;whiteSpace=wrap;html=1;" parent="1" vertex="1">
          <mxGeometry x="450" y="-40" width="80" height="40" as="geometry" />
        </mxCell>
        <mxCell id="dt0dAXxQC4JxOoUAS6Yy-17" value="CreateDate" style="ellipse;whiteSpace=wrap;html=1;" parent="1" vertex="1">
          <mxGeometry x="518.28" y="20" width="80" height="40" as="geometry" />
        </mxCell>
        <mxCell id="dt0dAXxQC4JxOoUAS6Yy-18" value="" style="endArrow=none;html=1;rounded=0;entryX=1;entryY=1;entryDx=0;entryDy=0;exitX=0.5;exitY=0;exitDx=0;exitDy=0;" parent="1" source="dt0dAXxQC4JxOoUAS6Yy-11" target="dt0dAXxQC4JxOoUAS6Yy-12" edge="1">
          <mxGeometry width="50" height="50" relative="1" as="geometry">
            <mxPoint x="250.00000000000003" y="160" as="sourcePoint" />
            <mxPoint x="300" y="110" as="targetPoint" />
          </mxGeometry>
        </mxCell>
        <mxCell id="dt0dAXxQC4JxOoUAS6Yy-20" value="" style="endArrow=none;html=1;rounded=0;entryX=0.5;entryY=1;entryDx=0;entryDy=0;exitX=0.5;exitY=0;exitDx=0;exitDy=0;" parent="1" source="dt0dAXxQC4JxOoUAS6Yy-11" target="dt0dAXxQC4JxOoUAS6Yy-13" edge="1">
          <mxGeometry width="50" height="50" relative="1" as="geometry">
            <mxPoint x="380" y="150" as="sourcePoint" />
            <mxPoint x="208.00000000000003" y="54" as="targetPoint" />
          </mxGeometry>
        </mxCell>
        <mxCell id="dt0dAXxQC4JxOoUAS6Yy-21" value="" style="endArrow=none;html=1;rounded=0;entryX=0.5;entryY=1;entryDx=0;entryDy=0;exitX=0.5;exitY=0;exitDx=0;exitDy=0;" parent="1" source="dt0dAXxQC4JxOoUAS6Yy-11" target="dt0dAXxQC4JxOoUAS6Yy-14" edge="1">
          <mxGeometry width="50" height="50" relative="1" as="geometry">
            <mxPoint x="390" y="160" as="sourcePoint" />
            <mxPoint x="218.00000000000003" y="64" as="targetPoint" />
          </mxGeometry>
        </mxCell>
        <mxCell id="dt0dAXxQC4JxOoUAS6Yy-22" value="" style="endArrow=none;html=1;rounded=0;entryX=0.5;entryY=1;entryDx=0;entryDy=0;exitX=0.5;exitY=0;exitDx=0;exitDy=0;" parent="1" source="dt0dAXxQC4JxOoUAS6Yy-11" target="dt0dAXxQC4JxOoUAS6Yy-15" edge="1">
          <mxGeometry width="50" height="50" relative="1" as="geometry">
            <mxPoint x="400" y="170" as="sourcePoint" />
            <mxPoint x="228.00000000000003" y="74" as="targetPoint" />
          </mxGeometry>
        </mxCell>
        <mxCell id="dt0dAXxQC4JxOoUAS6Yy-23" value="" style="endArrow=none;html=1;rounded=0;entryX=0.5;entryY=1;entryDx=0;entryDy=0;exitX=0.5;exitY=0;exitDx=0;exitDy=0;" parent="1" source="dt0dAXxQC4JxOoUAS6Yy-11" target="dt0dAXxQC4JxOoUAS6Yy-16" edge="1">
          <mxGeometry width="50" height="50" relative="1" as="geometry">
            <mxPoint x="410" y="180" as="sourcePoint" />
            <mxPoint x="238.00000000000003" y="84" as="targetPoint" />
          </mxGeometry>
        </mxCell>
        <mxCell id="dt0dAXxQC4JxOoUAS6Yy-24" value="" style="endArrow=none;html=1;rounded=0;entryX=0.5;entryY=1;entryDx=0;entryDy=0;exitX=0.5;exitY=0;exitDx=0;exitDy=0;" parent="1" source="dt0dAXxQC4JxOoUAS6Yy-11" target="dt0dAXxQC4JxOoUAS6Yy-17" edge="1">
          <mxGeometry width="50" height="50" relative="1" as="geometry">
            <mxPoint x="420" y="190" as="sourcePoint" />
            <mxPoint x="546" y="60" as="targetPoint" />
          </mxGeometry>
        </mxCell>
        <mxCell id="dt0dAXxQC4JxOoUAS6Yy-25" value="Supplier" style="rounded=0;whiteSpace=wrap;html=1;" parent="1" vertex="1">
          <mxGeometry x="1025" y="420" width="120" height="50" as="geometry" />
        </mxCell>
        <mxCell id="dt0dAXxQC4JxOoUAS6Yy-26" value="SupplierID" style="ellipse;whiteSpace=wrap;html=1;" parent="1" vertex="1">
          <mxGeometry x="795" y="615" width="80" height="40" as="geometry" />
        </mxCell>
        <mxCell id="dt0dAXxQC4JxOoUAS6Yy-27" value="SupplierName" style="ellipse;whiteSpace=wrap;html=1;" parent="1" vertex="1">
          <mxGeometry x="885" y="640" width="90" height="40" as="geometry" />
        </mxCell>
        <mxCell id="dt0dAXxQC4JxOoUAS6Yy-28" value="ContactName" style="ellipse;whiteSpace=wrap;html=1;" parent="1" vertex="1">
          <mxGeometry x="945" y="690" width="100" height="40" as="geometry" />
        </mxCell>
        <mxCell id="dt0dAXxQC4JxOoUAS6Yy-29" value="Phone" style="ellipse;whiteSpace=wrap;html=1;" parent="1" vertex="1">
          <mxGeometry x="1045" y="670" width="80" height="40" as="geometry" />
        </mxCell>
        <mxCell id="dt0dAXxQC4JxOoUAS6Yy-30" value="Email" style="ellipse;whiteSpace=wrap;html=1;" parent="1" vertex="1">
          <mxGeometry x="1090" y="620" width="80" height="40" as="geometry" />
        </mxCell>
        <mxCell id="dt0dAXxQC4JxOoUAS6Yy-31" value="Address" style="ellipse;whiteSpace=wrap;html=1;" parent="1" vertex="1">
          <mxGeometry x="1145" y="580" width="80" height="40" as="geometry" />
        </mxCell>
        <mxCell id="dt0dAXxQC4JxOoUAS6Yy-32" value="CreatedDate" style="ellipse;whiteSpace=wrap;html=1;" parent="1" vertex="1">
          <mxGeometry x="1220" y="540" width="90" height="40" as="geometry" />
        </mxCell>
        <mxCell id="dt0dAXxQC4JxOoUAS6Yy-33" value="" style="endArrow=none;html=1;rounded=0;entryX=0.5;entryY=1;entryDx=0;entryDy=0;exitX=1;exitY=0;exitDx=0;exitDy=0;" parent="1" source="dt0dAXxQC4JxOoUAS6Yy-26" target="dt0dAXxQC4JxOoUAS6Yy-25" edge="1">
          <mxGeometry width="50" height="50" relative="1" as="geometry">
            <mxPoint x="1185" y="330" as="sourcePoint" />
            <mxPoint x="1235" y="280" as="targetPoint" />
          </mxGeometry>
        </mxCell>
        <mxCell id="dt0dAXxQC4JxOoUAS6Yy-35" value="" style="endArrow=none;html=1;rounded=0;exitX=0.5;exitY=0;exitDx=0;exitDy=0;entryX=0.5;entryY=1;entryDx=0;entryDy=0;" parent="1" source="dt0dAXxQC4JxOoUAS6Yy-27" target="dt0dAXxQC4JxOoUAS6Yy-25" edge="1">
          <mxGeometry width="50" height="50" relative="1" as="geometry">
            <mxPoint x="1223" y="294" as="sourcePoint" />
            <mxPoint x="1395" y="290" as="targetPoint" />
          </mxGeometry>
        </mxCell>
        <mxCell id="dt0dAXxQC4JxOoUAS6Yy-36" value="" style="endArrow=none;html=1;rounded=0;entryX=0.5;entryY=1;entryDx=0;entryDy=0;exitX=0.5;exitY=0;exitDx=0;exitDy=0;" parent="1" source="dt0dAXxQC4JxOoUAS6Yy-28" target="dt0dAXxQC4JxOoUAS6Yy-25" edge="1">
          <mxGeometry width="50" height="50" relative="1" as="geometry">
            <mxPoint x="1233" y="304" as="sourcePoint" />
            <mxPoint x="1405" y="340" as="targetPoint" />
          </mxGeometry>
        </mxCell>
        <mxCell id="dt0dAXxQC4JxOoUAS6Yy-37" value="" style="endArrow=none;html=1;rounded=0;entryX=0.5;entryY=1;entryDx=0;entryDy=0;exitX=0.5;exitY=0;exitDx=0;exitDy=0;" parent="1" source="dt0dAXxQC4JxOoUAS6Yy-29" target="dt0dAXxQC4JxOoUAS6Yy-25" edge="1">
          <mxGeometry width="50" height="50" relative="1" as="geometry">
            <mxPoint x="1243" y="314" as="sourcePoint" />
            <mxPoint x="1415" y="350" as="targetPoint" />
          </mxGeometry>
        </mxCell>
        <mxCell id="dt0dAXxQC4JxOoUAS6Yy-38" value="" style="endArrow=none;html=1;rounded=0;entryX=0.5;entryY=1;entryDx=0;entryDy=0;exitX=0.5;exitY=0;exitDx=0;exitDy=0;" parent="1" source="dt0dAXxQC4JxOoUAS6Yy-30" target="dt0dAXxQC4JxOoUAS6Yy-25" edge="1">
          <mxGeometry width="50" height="50" relative="1" as="geometry">
            <mxPoint x="1253" y="324" as="sourcePoint" />
            <mxPoint x="1425" y="360" as="targetPoint" />
          </mxGeometry>
        </mxCell>
        <mxCell id="dt0dAXxQC4JxOoUAS6Yy-39" value="" style="endArrow=none;html=1;rounded=0;entryX=0.5;entryY=1;entryDx=0;entryDy=0;exitX=0.5;exitY=0;exitDx=0;exitDy=0;" parent="1" source="dt0dAXxQC4JxOoUAS6Yy-31" target="dt0dAXxQC4JxOoUAS6Yy-25" edge="1">
          <mxGeometry width="50" height="50" relative="1" as="geometry">
            <mxPoint x="1263" y="334" as="sourcePoint" />
            <mxPoint x="1435" y="370" as="targetPoint" />
            <Array as="points" />
          </mxGeometry>
        </mxCell>
        <mxCell id="dt0dAXxQC4JxOoUAS6Yy-40" value="" style="endArrow=none;html=1;rounded=0;entryX=0.5;entryY=0;entryDx=0;entryDy=0;exitX=0.5;exitY=1;exitDx=0;exitDy=0;" parent="1" source="dt0dAXxQC4JxOoUAS6Yy-25" target="dt0dAXxQC4JxOoUAS6Yy-32" edge="1">
          <mxGeometry width="50" height="50" relative="1" as="geometry">
            <mxPoint x="1273" y="344" as="sourcePoint" />
            <mxPoint x="1445" y="380" as="targetPoint" />
          </mxGeometry>
        </mxCell>
        <mxCell id="dt0dAXxQC4JxOoUAS6Yy-41" value="Product-Supplier" style="rounded=0;whiteSpace=wrap;html=1;" parent="1" vertex="1">
          <mxGeometry x="640" y="420" width="120" height="50" as="geometry" />
        </mxCell>
        <mxCell id="dt0dAXxQC4JxOoUAS6Yy-42" value="ProductID" style="ellipse;whiteSpace=wrap;html=1;" parent="1" vertex="1">
          <mxGeometry x="525" y="555" width="80" height="40" as="geometry" />
        </mxCell>
        <mxCell id="dt0dAXxQC4JxOoUAS6Yy-43" value="SupplierID" style="ellipse;whiteSpace=wrap;html=1;" parent="1" vertex="1">
          <mxGeometry x="616.72" y="575" width="80" height="40" as="geometry" />
        </mxCell>
        <mxCell id="dt0dAXxQC4JxOoUAS6Yy-45" value="SupplyPrice" style="ellipse;whiteSpace=wrap;html=1;" parent="1" vertex="1">
          <mxGeometry x="746.72" y="565" width="80" height="40" as="geometry" />
        </mxCell>
        <mxCell id="dt0dAXxQC4JxOoUAS6Yy-46" value="" style="endArrow=none;html=1;rounded=0;entryX=0.5;entryY=0;entryDx=0;entryDy=0;exitX=0.5;exitY=1;exitDx=0;exitDy=0;" parent="1" source="dt0dAXxQC4JxOoUAS6Yy-41" target="dt0dAXxQC4JxOoUAS6Yy-42" edge="1">
          <mxGeometry width="50" height="50" relative="1" as="geometry">
            <mxPoint x="495" y="160" as="sourcePoint" />
            <mxPoint x="363.28427124746213" y="314.14213562373106" as="targetPoint" />
          </mxGeometry>
        </mxCell>
        <mxCell id="dt0dAXxQC4JxOoUAS6Yy-47" value="" style="endArrow=none;html=1;rounded=0;entryX=0.5;entryY=0;entryDx=0;entryDy=0;exitX=0.5;exitY=1;exitDx=0;exitDy=0;" parent="1" source="dt0dAXxQC4JxOoUAS6Yy-41" target="dt0dAXxQC4JxOoUAS6Yy-43" edge="1">
          <mxGeometry width="50" height="50" relative="1" as="geometry">
            <mxPoint x="485" y="190" as="sourcePoint" />
            <mxPoint x="363" y="124" as="targetPoint" />
          </mxGeometry>
        </mxCell>
        <mxCell id="dt0dAXxQC4JxOoUAS6Yy-48" value="" style="endArrow=none;html=1;rounded=0;entryX=0.5;entryY=0;entryDx=0;entryDy=0;exitX=0.5;exitY=1;exitDx=0;exitDy=0;" parent="1" source="dt0dAXxQC4JxOoUAS6Yy-41" target="dt0dAXxQC4JxOoUAS6Yy-45" edge="1">
          <mxGeometry width="50" height="50" relative="1" as="geometry">
            <mxPoint x="495" y="200" as="sourcePoint" />
            <mxPoint x="373" y="134" as="targetPoint" />
          </mxGeometry>
        </mxCell>
        <mxCell id="dt0dAXxQC4JxOoUAS6Yy-49" value="Inventory" style="rounded=0;whiteSpace=wrap;html=1;" parent="1" vertex="1">
          <mxGeometry x="1021" y="165" width="120" height="50" as="geometry" />
        </mxCell>
        <mxCell id="dt0dAXxQC4JxOoUAS6Yy-50" value="InventoryID" style="ellipse;whiteSpace=wrap;html=1;" parent="1" vertex="1">
          <mxGeometry x="870" y="25" width="80" height="40" as="geometry" />
        </mxCell>
        <mxCell id="dt0dAXxQC4JxOoUAS6Yy-51" value="ProductID" style="ellipse;whiteSpace=wrap;html=1;" parent="1" vertex="1">
          <mxGeometry x="961.72" y="-15" width="80" height="40" as="geometry" />
        </mxCell>
        <mxCell id="dt0dAXxQC4JxOoUAS6Yy-52" value="Quantity" style="ellipse;whiteSpace=wrap;html=1;" parent="1" vertex="1">
          <mxGeometry x="1171.72" y="-35" width="80" height="40" as="geometry" />
        </mxCell>
        <mxCell id="dt0dAXxQC4JxOoUAS6Yy-53" value="LastUpdated" style="ellipse;whiteSpace=wrap;html=1;" parent="1" vertex="1">
          <mxGeometry x="1050" y="-55" width="80" height="40" as="geometry" />
        </mxCell>
        <mxCell id="dt0dAXxQC4JxOoUAS6Yy-54" value="" style="endArrow=none;html=1;rounded=0;exitX=0.5;exitY=0;exitDx=0;exitDy=0;entryX=1;entryY=1;entryDx=0;entryDy=0;" parent="1" source="dt0dAXxQC4JxOoUAS6Yy-49" target="dt0dAXxQC4JxOoUAS6Yy-50" edge="1">
          <mxGeometry width="50" height="50" relative="1" as="geometry">
            <mxPoint x="1041.72" y="-105" as="sourcePoint" />
            <mxPoint x="1091.72" y="-155" as="targetPoint" />
          </mxGeometry>
        </mxCell>
        <mxCell id="dt0dAXxQC4JxOoUAS6Yy-55" value="" style="endArrow=none;html=1;rounded=0;exitX=0.5;exitY=0;exitDx=0;exitDy=0;entryX=0.5;entryY=1;entryDx=0;entryDy=0;" parent="1" source="dt0dAXxQC4JxOoUAS6Yy-49" target="dt0dAXxQC4JxOoUAS6Yy-51" edge="1">
          <mxGeometry width="50" height="50" relative="1" as="geometry">
            <mxPoint x="1141.72" y="-65" as="sourcePoint" />
            <mxPoint x="1041.72" y="-133" as="targetPoint" />
          </mxGeometry>
        </mxCell>
        <mxCell id="dt0dAXxQC4JxOoUAS6Yy-56" value="" style="endArrow=none;html=1;rounded=0;entryX=0.5;entryY=1;entryDx=0;entryDy=0;exitX=0.5;exitY=0;exitDx=0;exitDy=0;" parent="1" target="dt0dAXxQC4JxOoUAS6Yy-52" edge="1" source="dt0dAXxQC4JxOoUAS6Yy-49">
          <mxGeometry width="50" height="50" relative="1" as="geometry">
            <mxPoint x="1131.72" y="-25" as="sourcePoint" />
            <mxPoint x="1051.72" y="-123" as="targetPoint" />
          </mxGeometry>
        </mxCell>
        <mxCell id="dt0dAXxQC4JxOoUAS6Yy-57" value="" style="endArrow=none;html=1;rounded=0;exitX=0.5;exitY=0;exitDx=0;exitDy=0;entryX=0.5;entryY=1;entryDx=0;entryDy=0;" parent="1" source="dt0dAXxQC4JxOoUAS6Yy-49" target="dt0dAXxQC4JxOoUAS6Yy-53" edge="1">
          <mxGeometry width="50" height="50" relative="1" as="geometry">
            <mxPoint x="1161.72" y="-45" as="sourcePoint" />
            <mxPoint x="1061.72" y="-113" as="targetPoint" />
          </mxGeometry>
        </mxCell>
        <mxCell id="dt0dAXxQC4JxOoUAS6Yy-63" value="Sales" style="rounded=0;whiteSpace=wrap;html=1;" parent="1" vertex="1">
          <mxGeometry x="245.00000000000003" y="420" width="120" height="50" as="geometry" />
        </mxCell>
        <mxCell id="dt0dAXxQC4JxOoUAS6Yy-64" value="SaleID" style="ellipse;whiteSpace=wrap;html=1;" parent="1" vertex="1">
          <mxGeometry x="90" y="610" width="80" height="40" as="geometry" />
        </mxCell>
        <mxCell id="dt0dAXxQC4JxOoUAS6Yy-65" value="ProductID" style="ellipse;whiteSpace=wrap;html=1;" parent="1" vertex="1">
          <mxGeometry x="185.00000000000003" y="585" width="80" height="40" as="geometry" />
        </mxCell>
        <mxCell id="dt0dAXxQC4JxOoUAS6Yy-66" value="Quantity" style="ellipse;whiteSpace=wrap;html=1;" parent="1" vertex="1">
          <mxGeometry x="285" y="620" width="80" height="40" as="geometry" />
        </mxCell>
        <mxCell id="dt0dAXxQC4JxOoUAS6Yy-67" value="SalePrice" style="ellipse;whiteSpace=wrap;html=1;" parent="1" vertex="1">
          <mxGeometry x="365" y="580" width="80" height="40" as="geometry" />
        </mxCell>
        <mxCell id="dt0dAXxQC4JxOoUAS6Yy-68" value="SaleDate" style="ellipse;whiteSpace=wrap;html=1;" parent="1" vertex="1">
          <mxGeometry x="475" y="600" width="80" height="40" as="geometry" />
        </mxCell>
        <mxCell id="dt0dAXxQC4JxOoUAS6Yy-69" value="" style="endArrow=none;html=1;rounded=0;entryX=0.5;entryY=1;entryDx=0;entryDy=0;exitX=0.5;exitY=0;exitDx=0;exitDy=0;" parent="1" source="dt0dAXxQC4JxOoUAS6Yy-64" target="dt0dAXxQC4JxOoUAS6Yy-63" edge="1">
          <mxGeometry width="50" height="50" relative="1" as="geometry">
            <mxPoint x="163.28" y="570" as="sourcePoint" />
            <mxPoint x="255.00000000000003" y="480" as="targetPoint" />
          </mxGeometry>
        </mxCell>
        <mxCell id="dt0dAXxQC4JxOoUAS6Yy-71" value="" style="endArrow=none;html=1;rounded=0;entryX=0.5;entryY=1;entryDx=0;entryDy=0;exitX=0.5;exitY=0;exitDx=0;exitDy=0;" parent="1" source="dt0dAXxQC4JxOoUAS6Yy-65" target="dt0dAXxQC4JxOoUAS6Yy-63" edge="1">
          <mxGeometry width="50" height="50" relative="1" as="geometry">
            <mxPoint x="183.00000000000003" y="576" as="sourcePoint" />
            <mxPoint x="325" y="480" as="targetPoint" />
          </mxGeometry>
        </mxCell>
        <mxCell id="dt0dAXxQC4JxOoUAS6Yy-72" value="" style="endArrow=none;html=1;rounded=0;entryX=0.5;entryY=1;entryDx=0;entryDy=0;exitX=0.5;exitY=0;exitDx=0;exitDy=0;" parent="1" source="dt0dAXxQC4JxOoUAS6Yy-66" target="dt0dAXxQC4JxOoUAS6Yy-63" edge="1">
          <mxGeometry width="50" height="50" relative="1" as="geometry">
            <mxPoint x="375.28" y="630" as="sourcePoint" />
            <mxPoint x="335" y="490" as="targetPoint" />
          </mxGeometry>
        </mxCell>
        <mxCell id="dt0dAXxQC4JxOoUAS6Yy-73" value="" style="endArrow=none;html=1;rounded=0;entryX=0.5;entryY=1;entryDx=0;entryDy=0;exitX=0.5;exitY=0;exitDx=0;exitDy=0;" parent="1" source="dt0dAXxQC4JxOoUAS6Yy-67" target="dt0dAXxQC4JxOoUAS6Yy-63" edge="1">
          <mxGeometry width="50" height="50" relative="1" as="geometry">
            <mxPoint x="203.00000000000003" y="596" as="sourcePoint" />
            <mxPoint x="345" y="500" as="targetPoint" />
          </mxGeometry>
        </mxCell>
        <mxCell id="dt0dAXxQC4JxOoUAS6Yy-74" value="" style="endArrow=none;html=1;rounded=0;entryX=0.5;entryY=1;entryDx=0;entryDy=0;exitX=0;exitY=0;exitDx=0;exitDy=0;" parent="1" source="dt0dAXxQC4JxOoUAS6Yy-68" target="dt0dAXxQC4JxOoUAS6Yy-63" edge="1">
          <mxGeometry width="50" height="50" relative="1" as="geometry">
            <mxPoint x="213.00000000000003" y="606" as="sourcePoint" />
            <mxPoint x="355" y="510" as="targetPoint" />
          </mxGeometry>
        </mxCell>
        <mxCell id="fGiNE6eSNNukwTCs-IcG-1" value="have" style="rhombus;whiteSpace=wrap;html=1;" vertex="1" parent="1">
          <mxGeometry x="518.28" y="170" width="60" height="30" as="geometry" />
        </mxCell>
        <mxCell id="fGiNE6eSNNukwTCs-IcG-2" value="" style="endArrow=none;html=1;rounded=0;entryX=1;entryY=0.5;entryDx=0;entryDy=0;exitX=0;exitY=0.5;exitDx=0;exitDy=0;" edge="1" parent="1" source="fGiNE6eSNNukwTCs-IcG-30" target="dt0dAXxQC4JxOoUAS6Yy-11">
          <mxGeometry width="50" height="50" relative="1" as="geometry">
            <mxPoint x="140.00000000000003" y="220" as="sourcePoint" />
            <mxPoint x="190.00000000000003" y="170" as="targetPoint" />
          </mxGeometry>
        </mxCell>
        <mxCell id="fGiNE6eSNNukwTCs-IcG-3" value="" style="endArrow=none;html=1;rounded=0;exitX=0;exitY=0.5;exitDx=0;exitDy=0;entryX=1;entryY=0.5;entryDx=0;entryDy=0;" edge="1" parent="1" source="dt0dAXxQC4JxOoUAS6Yy-1" target="fGiNE6eSNNukwTCs-IcG-1">
          <mxGeometry width="50" height="50" relative="1" as="geometry">
            <mxPoint x="135" y="80" as="sourcePoint" />
            <mxPoint x="245" y="75" as="targetPoint" />
          </mxGeometry>
        </mxCell>
        <mxCell id="fGiNE6eSNNukwTCs-IcG-5" value="for" style="rhombus;whiteSpace=wrap;html=1;" vertex="1" parent="1">
          <mxGeometry x="260" y="290" width="60" height="30" as="geometry" />
        </mxCell>
        <mxCell id="fGiNE6eSNNukwTCs-IcG-7" value="" style="endArrow=none;html=1;rounded=0;entryX=0.5;entryY=1;entryDx=0;entryDy=0;exitX=0.5;exitY=0;exitDx=0;exitDy=0;" edge="1" parent="1" source="fGiNE6eSNNukwTCs-IcG-21" target="dt0dAXxQC4JxOoUAS6Yy-11">
          <mxGeometry width="50" height="50" relative="1" as="geometry">
            <mxPoint x="670" y="350" as="sourcePoint" />
            <mxPoint x="720" y="300" as="targetPoint" />
          </mxGeometry>
        </mxCell>
        <mxCell id="fGiNE6eSNNukwTCs-IcG-8" value="" style="endArrow=none;html=1;rounded=0;entryX=0.5;entryY=1;entryDx=0;entryDy=0;exitX=0.5;exitY=0;exitDx=0;exitDy=0;" edge="1" parent="1" source="dt0dAXxQC4JxOoUAS6Yy-63" target="fGiNE6eSNNukwTCs-IcG-5">
          <mxGeometry width="50" height="50" relative="1" as="geometry">
            <mxPoint x="345" y="320" as="sourcePoint" />
            <mxPoint x="380" y="220" as="targetPoint" />
          </mxGeometry>
        </mxCell>
        <mxCell id="fGiNE6eSNNukwTCs-IcG-9" value="in" style="rhombus;whiteSpace=wrap;html=1;" vertex="1" parent="1">
          <mxGeometry x="870" y="170" width="60" height="30" as="geometry" />
        </mxCell>
        <mxCell id="fGiNE6eSNNukwTCs-IcG-10" value="" style="endArrow=none;html=1;rounded=0;entryX=0;entryY=0.5;entryDx=0;entryDy=0;exitX=1;exitY=0.5;exitDx=0;exitDy=0;" edge="1" parent="1" source="dt0dAXxQC4JxOoUAS6Yy-1" target="fGiNE6eSNNukwTCs-IcG-9">
          <mxGeometry width="50" height="50" relative="1" as="geometry">
            <mxPoint x="810" y="300" as="sourcePoint" />
            <mxPoint x="860" y="250" as="targetPoint" />
          </mxGeometry>
        </mxCell>
        <mxCell id="fGiNE6eSNNukwTCs-IcG-11" value="" style="endArrow=none;html=1;rounded=0;entryX=1;entryY=0.5;entryDx=0;entryDy=0;exitX=0;exitY=0.5;exitDx=0;exitDy=0;" edge="1" parent="1" source="dt0dAXxQC4JxOoUAS6Yy-49" target="fGiNE6eSNNukwTCs-IcG-9">
          <mxGeometry width="50" height="50" relative="1" as="geometry">
            <mxPoint x="805" y="195" as="sourcePoint" />
            <mxPoint x="895" y="195" as="targetPoint" />
          </mxGeometry>
        </mxCell>
        <mxCell id="fGiNE6eSNNukwTCs-IcG-15" value="saved" style="rhombus;whiteSpace=wrap;html=1;" vertex="1" parent="1">
          <mxGeometry x="870" y="430" width="60" height="30" as="geometry" />
        </mxCell>
        <mxCell id="fGiNE6eSNNukwTCs-IcG-16" value="" style="endArrow=none;html=1;rounded=0;entryX=1;entryY=0.5;entryDx=0;entryDy=0;exitX=0;exitY=0.5;exitDx=0;exitDy=0;" edge="1" parent="1" target="fGiNE6eSNNukwTCs-IcG-15" source="dt0dAXxQC4JxOoUAS6Yy-25">
          <mxGeometry width="50" height="50" relative="1" as="geometry">
            <mxPoint x="1031" y="200" as="sourcePoint" />
            <mxPoint x="905" y="205" as="targetPoint" />
          </mxGeometry>
        </mxCell>
        <mxCell id="fGiNE6eSNNukwTCs-IcG-17" value="" style="endArrow=none;html=1;rounded=0;entryX=0;entryY=0.5;entryDx=0;entryDy=0;exitX=1;exitY=0.5;exitDx=0;exitDy=0;" edge="1" parent="1" source="dt0dAXxQC4JxOoUAS6Yy-41" target="fGiNE6eSNNukwTCs-IcG-15">
          <mxGeometry width="50" height="50" relative="1" as="geometry">
            <mxPoint x="1035" y="455" as="sourcePoint" />
            <mxPoint x="940" y="455" as="targetPoint" />
          </mxGeometry>
        </mxCell>
        <mxCell id="fGiNE6eSNNukwTCs-IcG-18" value="produce" style="rhombus;whiteSpace=wrap;html=1;" vertex="1" parent="1">
          <mxGeometry x="1060" y="300" width="60" height="30" as="geometry" />
        </mxCell>
        <mxCell id="fGiNE6eSNNukwTCs-IcG-19" value="" style="endArrow=none;html=1;rounded=0;entryX=0.5;entryY=0;entryDx=0;entryDy=0;exitX=0.723;exitY=0.23;exitDx=0;exitDy=0;exitPerimeter=0;" edge="1" parent="1" target="fGiNE6eSNNukwTCs-IcG-18" source="fGiNE6eSNNukwTCs-IcG-49">
          <mxGeometry width="50" height="50" relative="1" as="geometry">
            <mxPoint x="950" y="315" as="sourcePoint" />
            <mxPoint x="1130" y="325" as="targetPoint" />
          </mxGeometry>
        </mxCell>
        <mxCell id="fGiNE6eSNNukwTCs-IcG-20" value="" style="endArrow=none;html=1;rounded=0;entryX=0.5;entryY=1;entryDx=0;entryDy=0;exitX=0.5;exitY=0;exitDx=0;exitDy=0;" edge="1" parent="1" source="dt0dAXxQC4JxOoUAS6Yy-25" target="fGiNE6eSNNukwTCs-IcG-18">
          <mxGeometry width="50" height="50" relative="1" as="geometry">
            <mxPoint x="1091" y="225" as="sourcePoint" />
            <mxPoint x="1100" y="310" as="targetPoint" />
          </mxGeometry>
        </mxCell>
        <mxCell id="fGiNE6eSNNukwTCs-IcG-23" value="n" style="text;html=1;align=center;verticalAlign=middle;resizable=0;points=[];autosize=1;strokeColor=none;fillColor=none;" vertex="1" parent="1">
          <mxGeometry x="300" y="390" width="30" height="30" as="geometry" />
        </mxCell>
        <mxCell id="fGiNE6eSNNukwTCs-IcG-25" value="" style="endArrow=none;html=1;rounded=0;entryX=0.5;entryY=0;entryDx=0;entryDy=0;exitX=0.5;exitY=0;exitDx=0;exitDy=0;" edge="1" parent="1" source="fGiNE6eSNNukwTCs-IcG-5" target="fGiNE6eSNNukwTCs-IcG-21">
          <mxGeometry width="50" height="50" relative="1" as="geometry">
            <mxPoint x="290" y="290" as="sourcePoint" />
            <mxPoint x="370" y="210" as="targetPoint" />
          </mxGeometry>
        </mxCell>
        <mxCell id="fGiNE6eSNNukwTCs-IcG-21" value="1" style="text;html=1;align=center;verticalAlign=middle;whiteSpace=wrap;rounded=0;" vertex="1" parent="1">
          <mxGeometry x="340" y="210" width="60" height="30" as="geometry" />
        </mxCell>
        <mxCell id="fGiNE6eSNNukwTCs-IcG-31" value="" style="endArrow=none;html=1;rounded=0;entryX=1;entryY=0.5;entryDx=0;entryDy=0;exitX=0;exitY=0.5;exitDx=0;exitDy=0;" edge="1" parent="1" source="fGiNE6eSNNukwTCs-IcG-30" target="dt0dAXxQC4JxOoUAS6Yy-11">
          <mxGeometry width="50" height="50" relative="1" as="geometry">
            <mxPoint x="518" y="185" as="sourcePoint" />
            <mxPoint x="430" y="185" as="targetPoint" />
          </mxGeometry>
        </mxCell>
        <mxCell id="fGiNE6eSNNukwTCs-IcG-32" value="" style="endArrow=none;html=1;rounded=0;entryX=1;entryY=0.5;entryDx=0;entryDy=0;exitX=0;exitY=0.5;exitDx=0;exitDy=0;" edge="1" parent="1" source="fGiNE6eSNNukwTCs-IcG-1" target="dt0dAXxQC4JxOoUAS6Yy-11">
          <mxGeometry width="50" height="50" relative="1" as="geometry">
            <mxPoint x="518" y="185" as="sourcePoint" />
            <mxPoint x="430" y="185" as="targetPoint" />
          </mxGeometry>
        </mxCell>
        <mxCell id="fGiNE6eSNNukwTCs-IcG-30" value="n" style="text;html=1;align=center;verticalAlign=middle;resizable=0;points=[];autosize=1;strokeColor=none;fillColor=none;" vertex="1" parent="1">
          <mxGeometry x="430" y="180" width="30" height="30" as="geometry" />
        </mxCell>
        <mxCell id="fGiNE6eSNNukwTCs-IcG-33" value="1" style="text;html=1;align=center;verticalAlign=middle;whiteSpace=wrap;rounded=0;" vertex="1" parent="1">
          <mxGeometry x="636.72" y="180" width="60" height="30" as="geometry" />
        </mxCell>
        <mxCell id="fGiNE6eSNNukwTCs-IcG-35" value="" style="endArrow=none;html=1;rounded=0;entryX=1;entryY=0.5;entryDx=0;entryDy=0;exitX=0;exitY=0.5;exitDx=0;exitDy=0;" edge="1" parent="1" source="dt0dAXxQC4JxOoUAS6Yy-25" target="fGiNE6eSNNukwTCs-IcG-34">
          <mxGeometry width="50" height="50" relative="1" as="geometry">
            <mxPoint x="1025" y="445" as="sourcePoint" />
            <mxPoint x="930" y="445" as="targetPoint" />
          </mxGeometry>
        </mxCell>
        <mxCell id="fGiNE6eSNNukwTCs-IcG-34" value="1" style="text;html=1;align=center;verticalAlign=middle;whiteSpace=wrap;rounded=0;" vertex="1" parent="1">
          <mxGeometry x="981.72" y="420" width="60" height="30" as="geometry" />
        </mxCell>
        <mxCell id="fGiNE6eSNNukwTCs-IcG-39" value="" style="endArrow=none;html=1;rounded=0;entryX=0;entryY=0.5;entryDx=0;entryDy=0;exitX=1;exitY=0.5;exitDx=0;exitDy=0;" edge="1" parent="1" source="dt0dAXxQC4JxOoUAS6Yy-41" target="fGiNE6eSNNukwTCs-IcG-38">
          <mxGeometry width="50" height="50" relative="1" as="geometry">
            <mxPoint x="760" y="445" as="sourcePoint" />
            <mxPoint x="870" y="445" as="targetPoint" />
          </mxGeometry>
        </mxCell>
        <mxCell id="fGiNE6eSNNukwTCs-IcG-38" value="n" style="text;html=1;align=center;verticalAlign=middle;resizable=0;points=[];autosize=1;strokeColor=none;fillColor=none;" vertex="1" parent="1">
          <mxGeometry x="760" y="410" width="30" height="30" as="geometry" />
        </mxCell>
        <mxCell id="fGiNE6eSNNukwTCs-IcG-40" value="1" style="text;html=1;align=center;verticalAlign=middle;whiteSpace=wrap;rounded=0;" vertex="1" parent="1">
          <mxGeometry x="981.72" y="185" width="60" height="30" as="geometry" />
        </mxCell>
        <mxCell id="fGiNE6eSNNukwTCs-IcG-46" value="" style="endArrow=none;html=1;rounded=0;entryX=0;entryY=0.5;entryDx=0;entryDy=0;exitX=1;exitY=0.5;exitDx=0;exitDy=0;" edge="1" parent="1" source="dt0dAXxQC4JxOoUAS6Yy-1" target="fGiNE6eSNNukwTCs-IcG-45">
          <mxGeometry width="50" height="50" relative="1" as="geometry">
            <mxPoint x="795" y="185" as="sourcePoint" />
            <mxPoint x="870" y="185" as="targetPoint" />
          </mxGeometry>
        </mxCell>
        <mxCell id="fGiNE6eSNNukwTCs-IcG-45" value="n" style="text;html=1;align=center;verticalAlign=middle;resizable=0;points=[];autosize=1;strokeColor=none;fillColor=none;" vertex="1" parent="1">
          <mxGeometry x="797" y="185" width="30" height="30" as="geometry" />
        </mxCell>
        <mxCell id="fGiNE6eSNNukwTCs-IcG-48" value="" style="endArrow=none;html=1;rounded=0;entryX=0.5;entryY=1;entryDx=0;entryDy=0;exitX=0.5;exitY=0;exitDx=0;exitDy=0;" edge="1" parent="1" source="dt0dAXxQC4JxOoUAS6Yy-25" target="fGiNE6eSNNukwTCs-IcG-47">
          <mxGeometry width="50" height="50" relative="1" as="geometry">
            <mxPoint x="1085" y="420" as="sourcePoint" />
            <mxPoint x="1090" y="330" as="targetPoint" />
          </mxGeometry>
        </mxCell>
        <mxCell id="fGiNE6eSNNukwTCs-IcG-47" value="1" style="text;html=1;align=center;verticalAlign=middle;whiteSpace=wrap;rounded=0;" vertex="1" parent="1">
          <mxGeometry x="1041.72" y="390" width="60" height="30" as="geometry" />
        </mxCell>
        <mxCell id="fGiNE6eSNNukwTCs-IcG-50" value="" style="endArrow=none;html=1;rounded=0;entryX=0.5;entryY=0;entryDx=0;entryDy=0;exitX=0.5;exitY=1;exitDx=0;exitDy=0;" edge="1" parent="1" source="dt0dAXxQC4JxOoUAS6Yy-49" target="fGiNE6eSNNukwTCs-IcG-49">
          <mxGeometry width="50" height="50" relative="1" as="geometry">
            <mxPoint x="1081" y="215" as="sourcePoint" />
            <mxPoint x="1090" y="300" as="targetPoint" />
          </mxGeometry>
        </mxCell>
        <mxCell id="fGiNE6eSNNukwTCs-IcG-49" value="n" style="text;html=1;align=center;verticalAlign=middle;resizable=0;points=[];autosize=1;strokeColor=none;fillColor=none;" vertex="1" parent="1">
          <mxGeometry x="1056.72" y="210" width="30" height="30" as="geometry" />
        </mxCell>
        <mxCell id="fGiNE6eSNNukwTCs-IcG-51" value="Product" style="swimlane;fontStyle=0;childLayout=stackLayout;horizontal=1;startSize=30;horizontalStack=0;resizeParent=1;resizeParentMax=0;resizeLast=0;collapsible=1;marginBottom=0;whiteSpace=wrap;html=1;align=center;" vertex="1" parent="1">
          <mxGeometry x="826.72" y="1120" width="140" height="210" as="geometry" />
        </mxCell>
        <mxCell id="fGiNE6eSNNukwTCs-IcG-52" value="ProductID (PK)" style="text;strokeColor=none;fillColor=none;align=center;verticalAlign=middle;spacingLeft=4;spacingRight=4;overflow=hidden;points=[[0,0.5],[1,0.5]];portConstraint=eastwest;rotatable=0;whiteSpace=wrap;html=1;" vertex="1" parent="fGiNE6eSNNukwTCs-IcG-51">
          <mxGeometry y="30" width="140" height="30" as="geometry" />
        </mxCell>
        <mxCell id="fGiNE6eSNNukwTCs-IcG-53" value="ProductName" style="text;strokeColor=none;fillColor=none;align=center;verticalAlign=middle;spacingLeft=4;spacingRight=4;overflow=hidden;points=[[0,0.5],[1,0.5]];portConstraint=eastwest;rotatable=0;whiteSpace=wrap;html=1;" vertex="1" parent="fGiNE6eSNNukwTCs-IcG-51">
          <mxGeometry y="60" width="140" height="30" as="geometry" />
        </mxCell>
        <mxCell id="fGiNE6eSNNukwTCs-IcG-54" value="CategoryID (FK)&amp;nbsp;" style="text;strokeColor=none;fillColor=none;align=center;verticalAlign=middle;spacingLeft=4;spacingRight=4;overflow=hidden;points=[[0,0.5],[1,0.5]];portConstraint=eastwest;rotatable=0;whiteSpace=wrap;html=1;" vertex="1" parent="fGiNE6eSNNukwTCs-IcG-51">
          <mxGeometry y="90" width="140" height="30" as="geometry" />
        </mxCell>
        <mxCell id="fGiNE6eSNNukwTCs-IcG-56" value="QuantityInStock" style="text;strokeColor=none;fillColor=none;align=center;verticalAlign=middle;spacingLeft=4;spacingRight=4;overflow=hidden;points=[[0,0.5],[1,0.5]];portConstraint=eastwest;rotatable=0;whiteSpace=wrap;html=1;" vertex="1" parent="fGiNE6eSNNukwTCs-IcG-51">
          <mxGeometry y="120" width="140" height="30" as="geometry" />
        </mxCell>
        <mxCell id="fGiNE6eSNNukwTCs-IcG-57" value="Price" style="text;strokeColor=none;fillColor=none;align=center;verticalAlign=middle;spacingLeft=4;spacingRight=4;overflow=hidden;points=[[0,0.5],[1,0.5]];portConstraint=eastwest;rotatable=0;whiteSpace=wrap;html=1;" vertex="1" parent="fGiNE6eSNNukwTCs-IcG-51">
          <mxGeometry y="150" width="140" height="30" as="geometry" />
        </mxCell>
        <mxCell id="fGiNE6eSNNukwTCs-IcG-58" value="CreateDate" style="text;strokeColor=none;fillColor=none;align=center;verticalAlign=middle;spacingLeft=4;spacingRight=4;overflow=hidden;points=[[0,0.5],[1,0.5]];portConstraint=eastwest;rotatable=0;whiteSpace=wrap;html=1;" vertex="1" parent="fGiNE6eSNNukwTCs-IcG-51">
          <mxGeometry y="180" width="140" height="30" as="geometry" />
        </mxCell>
        <mxCell id="fGiNE6eSNNukwTCs-IcG-59" value="Category" style="swimlane;fontStyle=0;childLayout=stackLayout;horizontal=1;startSize=30;horizontalStack=0;resizeParent=1;resizeParentMax=0;resizeLast=0;collapsible=1;marginBottom=0;whiteSpace=wrap;html=1;align=center;" vertex="1" parent="1">
          <mxGeometry x="1101.72" y="1180" width="140" height="150" as="geometry" />
        </mxCell>
        <mxCell id="fGiNE6eSNNukwTCs-IcG-60" value="CategoryID (PK)" style="text;strokeColor=none;fillColor=none;align=center;verticalAlign=middle;spacingLeft=4;spacingRight=4;overflow=hidden;points=[[0,0.5],[1,0.5]];portConstraint=eastwest;rotatable=0;whiteSpace=wrap;html=1;" vertex="1" parent="fGiNE6eSNNukwTCs-IcG-59">
          <mxGeometry y="30" width="140" height="30" as="geometry" />
        </mxCell>
        <mxCell id="fGiNE6eSNNukwTCs-IcG-61" value="CategoryName" style="text;strokeColor=none;fillColor=none;align=center;verticalAlign=middle;spacingLeft=4;spacingRight=4;overflow=hidden;points=[[0,0.5],[1,0.5]];portConstraint=eastwest;rotatable=0;whiteSpace=wrap;html=1;" vertex="1" parent="fGiNE6eSNNukwTCs-IcG-59">
          <mxGeometry y="60" width="140" height="30" as="geometry" />
        </mxCell>
        <mxCell id="fGiNE6eSNNukwTCs-IcG-62" value="Descriptions" style="text;strokeColor=none;fillColor=none;align=center;verticalAlign=middle;spacingLeft=4;spacingRight=4;overflow=hidden;points=[[0,0.5],[1,0.5]];portConstraint=eastwest;rotatable=0;whiteSpace=wrap;html=1;" vertex="1" parent="fGiNE6eSNNukwTCs-IcG-59">
          <mxGeometry y="90" width="140" height="30" as="geometry" />
        </mxCell>
        <mxCell id="fGiNE6eSNNukwTCs-IcG-63" value="CreateDate" style="text;strokeColor=none;fillColor=none;align=center;verticalAlign=middle;spacingLeft=4;spacingRight=4;overflow=hidden;points=[[0,0.5],[1,0.5]];portConstraint=eastwest;rotatable=0;whiteSpace=wrap;html=1;" vertex="1" parent="fGiNE6eSNNukwTCs-IcG-59">
          <mxGeometry y="120" width="140" height="30" as="geometry" />
        </mxCell>
        <mxCell id="fGiNE6eSNNukwTCs-IcG-66" value="Inventory" style="swimlane;fontStyle=0;childLayout=stackLayout;horizontal=1;startSize=30;horizontalStack=0;resizeParent=1;resizeParentMax=0;resizeLast=0;collapsible=1;marginBottom=0;whiteSpace=wrap;html=1;align=center;" vertex="1" parent="1">
          <mxGeometry x="578.28" y="1120" width="140" height="150" as="geometry" />
        </mxCell>
        <mxCell id="fGiNE6eSNNukwTCs-IcG-67" value="InventoryID (PK)" style="text;strokeColor=none;fillColor=none;align=center;verticalAlign=middle;spacingLeft=4;spacingRight=4;overflow=hidden;points=[[0,0.5],[1,0.5]];portConstraint=eastwest;rotatable=0;whiteSpace=wrap;html=1;" vertex="1" parent="fGiNE6eSNNukwTCs-IcG-66">
          <mxGeometry y="30" width="140" height="30" as="geometry" />
        </mxCell>
        <mxCell id="fGiNE6eSNNukwTCs-IcG-68" value="ProductID (FK)" style="text;strokeColor=none;fillColor=none;align=center;verticalAlign=middle;spacingLeft=4;spacingRight=4;overflow=hidden;points=[[0,0.5],[1,0.5]];portConstraint=eastwest;rotatable=0;whiteSpace=wrap;html=1;" vertex="1" parent="fGiNE6eSNNukwTCs-IcG-66">
          <mxGeometry y="60" width="140" height="30" as="geometry" />
        </mxCell>
        <mxCell id="fGiNE6eSNNukwTCs-IcG-69" value="Quantity" style="text;strokeColor=none;fillColor=none;align=center;verticalAlign=middle;spacingLeft=4;spacingRight=4;overflow=hidden;points=[[0,0.5],[1,0.5]];portConstraint=eastwest;rotatable=0;whiteSpace=wrap;html=1;" vertex="1" parent="fGiNE6eSNNukwTCs-IcG-66">
          <mxGeometry y="90" width="140" height="30" as="geometry" />
        </mxCell>
        <mxCell id="fGiNE6eSNNukwTCs-IcG-70" value="LastUpdated" style="text;strokeColor=none;fillColor=none;align=center;verticalAlign=middle;spacingLeft=4;spacingRight=4;overflow=hidden;points=[[0,0.5],[1,0.5]];portConstraint=eastwest;rotatable=0;whiteSpace=wrap;html=1;" vertex="1" parent="fGiNE6eSNNukwTCs-IcG-66">
          <mxGeometry y="120" width="140" height="30" as="geometry" />
        </mxCell>
        <mxCell id="fGiNE6eSNNukwTCs-IcG-71" value="Supplier" style="swimlane;fontStyle=0;childLayout=stackLayout;horizontal=1;startSize=30;horizontalStack=0;resizeParent=1;resizeParentMax=0;resizeLast=0;collapsible=1;marginBottom=0;whiteSpace=wrap;html=1;align=center;" vertex="1" parent="1">
          <mxGeometry x="821.72" y="1420" width="140" height="240" as="geometry" />
        </mxCell>
        <mxCell id="fGiNE6eSNNukwTCs-IcG-72" value="SupplierID (PK)&amp;nbsp;" style="text;strokeColor=none;fillColor=none;align=center;verticalAlign=middle;spacingLeft=4;spacingRight=4;overflow=hidden;points=[[0,0.5],[1,0.5]];portConstraint=eastwest;rotatable=0;whiteSpace=wrap;html=1;" vertex="1" parent="fGiNE6eSNNukwTCs-IcG-71">
          <mxGeometry y="30" width="140" height="30" as="geometry" />
        </mxCell>
        <mxCell id="fGiNE6eSNNukwTCs-IcG-73" value="SupplierName" style="text;strokeColor=none;fillColor=none;align=center;verticalAlign=middle;spacingLeft=4;spacingRight=4;overflow=hidden;points=[[0,0.5],[1,0.5]];portConstraint=eastwest;rotatable=0;whiteSpace=wrap;html=1;" vertex="1" parent="fGiNE6eSNNukwTCs-IcG-71">
          <mxGeometry y="60" width="140" height="30" as="geometry" />
        </mxCell>
        <mxCell id="fGiNE6eSNNukwTCs-IcG-74" value="ContactName" style="text;strokeColor=none;fillColor=none;align=center;verticalAlign=middle;spacingLeft=4;spacingRight=4;overflow=hidden;points=[[0,0.5],[1,0.5]];portConstraint=eastwest;rotatable=0;whiteSpace=wrap;html=1;" vertex="1" parent="fGiNE6eSNNukwTCs-IcG-71">
          <mxGeometry y="90" width="140" height="30" as="geometry" />
        </mxCell>
        <mxCell id="fGiNE6eSNNukwTCs-IcG-75" value="Phone" style="text;strokeColor=none;fillColor=none;align=center;verticalAlign=middle;spacingLeft=4;spacingRight=4;overflow=hidden;points=[[0,0.5],[1,0.5]];portConstraint=eastwest;rotatable=0;whiteSpace=wrap;html=1;" vertex="1" parent="fGiNE6eSNNukwTCs-IcG-71">
          <mxGeometry y="120" width="140" height="30" as="geometry" />
        </mxCell>
        <mxCell id="fGiNE6eSNNukwTCs-IcG-76" value="Email" style="text;strokeColor=none;fillColor=none;align=center;verticalAlign=middle;spacingLeft=4;spacingRight=4;overflow=hidden;points=[[0,0.5],[1,0.5]];portConstraint=eastwest;rotatable=0;whiteSpace=wrap;html=1;" vertex="1" parent="fGiNE6eSNNukwTCs-IcG-71">
          <mxGeometry y="150" width="140" height="30" as="geometry" />
        </mxCell>
        <mxCell id="fGiNE6eSNNukwTCs-IcG-77" value="Address" style="text;strokeColor=none;fillColor=none;align=center;verticalAlign=middle;spacingLeft=4;spacingRight=4;overflow=hidden;points=[[0,0.5],[1,0.5]];portConstraint=eastwest;rotatable=0;whiteSpace=wrap;html=1;" vertex="1" parent="fGiNE6eSNNukwTCs-IcG-71">
          <mxGeometry y="180" width="140" height="30" as="geometry" />
        </mxCell>
        <mxCell id="fGiNE6eSNNukwTCs-IcG-78" value="CreateDate" style="text;strokeColor=none;fillColor=none;align=center;verticalAlign=middle;spacingLeft=4;spacingRight=4;overflow=hidden;points=[[0,0.5],[1,0.5]];portConstraint=eastwest;rotatable=0;whiteSpace=wrap;html=1;" vertex="1" parent="fGiNE6eSNNukwTCs-IcG-71">
          <mxGeometry y="210" width="140" height="30" as="geometry" />
        </mxCell>
        <mxCell id="fGiNE6eSNNukwTCs-IcG-89" value="Product-Supplier" style="swimlane;fontStyle=0;childLayout=stackLayout;horizontal=1;startSize=30;horizontalStack=0;resizeParent=1;resizeParentMax=0;resizeLast=0;collapsible=1;marginBottom=0;whiteSpace=wrap;html=1;align=center;" vertex="1" parent="1">
          <mxGeometry x="625" y="1390" width="140" height="120" as="geometry" />
        </mxCell>
        <mxCell id="fGiNE6eSNNukwTCs-IcG-90" value="ProductID (FK)" style="text;strokeColor=none;fillColor=none;align=center;verticalAlign=middle;spacingLeft=4;spacingRight=4;overflow=hidden;points=[[0,0.5],[1,0.5]];portConstraint=eastwest;rotatable=0;whiteSpace=wrap;html=1;" vertex="1" parent="fGiNE6eSNNukwTCs-IcG-89">
          <mxGeometry y="30" width="140" height="30" as="geometry" />
        </mxCell>
        <mxCell id="fGiNE6eSNNukwTCs-IcG-91" value="SupplierID(FK)" style="text;strokeColor=none;fillColor=none;align=center;verticalAlign=middle;spacingLeft=4;spacingRight=4;overflow=hidden;points=[[0,0.5],[1,0.5]];portConstraint=eastwest;rotatable=0;whiteSpace=wrap;html=1;" vertex="1" parent="fGiNE6eSNNukwTCs-IcG-89">
          <mxGeometry y="60" width="140" height="30" as="geometry" />
        </mxCell>
        <mxCell id="fGiNE6eSNNukwTCs-IcG-92" value="SupplyPrice" style="text;strokeColor=none;fillColor=none;align=center;verticalAlign=middle;spacingLeft=4;spacingRight=4;overflow=hidden;points=[[0,0.5],[1,0.5]];portConstraint=eastwest;rotatable=0;whiteSpace=wrap;html=1;" vertex="1" parent="fGiNE6eSNNukwTCs-IcG-89">
          <mxGeometry y="90" width="140" height="30" as="geometry" />
        </mxCell>
        <mxCell id="fGiNE6eSNNukwTCs-IcG-94" value="Sales" style="swimlane;fontStyle=0;childLayout=stackLayout;horizontal=1;startSize=30;horizontalStack=0;resizeParent=1;resizeParentMax=0;resizeLast=0;collapsible=1;marginBottom=0;whiteSpace=wrap;html=1;align=center;" vertex="1" parent="1">
          <mxGeometry x="1031.72" y="1360" width="140" height="180" as="geometry" />
        </mxCell>
        <mxCell id="fGiNE6eSNNukwTCs-IcG-95" value="SaleID (PK)" style="text;strokeColor=none;fillColor=none;align=center;verticalAlign=middle;spacingLeft=4;spacingRight=4;overflow=hidden;points=[[0,0.5],[1,0.5]];portConstraint=eastwest;rotatable=0;whiteSpace=wrap;html=1;" vertex="1" parent="fGiNE6eSNNukwTCs-IcG-94">
          <mxGeometry y="30" width="140" height="30" as="geometry" />
        </mxCell>
        <mxCell id="fGiNE6eSNNukwTCs-IcG-96" value="ProductID (FK)&amp;nbsp;" style="text;strokeColor=none;fillColor=none;align=center;verticalAlign=middle;spacingLeft=4;spacingRight=4;overflow=hidden;points=[[0,0.5],[1,0.5]];portConstraint=eastwest;rotatable=0;whiteSpace=wrap;html=1;" vertex="1" parent="fGiNE6eSNNukwTCs-IcG-94">
          <mxGeometry y="60" width="140" height="30" as="geometry" />
        </mxCell>
        <mxCell id="fGiNE6eSNNukwTCs-IcG-97" value="Quantity" style="text;strokeColor=none;fillColor=none;align=center;verticalAlign=middle;spacingLeft=4;spacingRight=4;overflow=hidden;points=[[0,0.5],[1,0.5]];portConstraint=eastwest;rotatable=0;whiteSpace=wrap;html=1;" vertex="1" parent="fGiNE6eSNNukwTCs-IcG-94">
          <mxGeometry y="90" width="140" height="30" as="geometry" />
        </mxCell>
        <mxCell id="fGiNE6eSNNukwTCs-IcG-98" value="SalePrice" style="text;strokeColor=none;fillColor=none;align=center;verticalAlign=middle;spacingLeft=4;spacingRight=4;overflow=hidden;points=[[0,0.5],[1,0.5]];portConstraint=eastwest;rotatable=0;whiteSpace=wrap;html=1;" vertex="1" parent="fGiNE6eSNNukwTCs-IcG-94">
          <mxGeometry y="120" width="140" height="30" as="geometry" />
        </mxCell>
        <mxCell id="fGiNE6eSNNukwTCs-IcG-99" value="SaleDate" style="text;strokeColor=none;fillColor=none;align=center;verticalAlign=middle;spacingLeft=4;spacingRight=4;overflow=hidden;points=[[0,0.5],[1,0.5]];portConstraint=eastwest;rotatable=0;whiteSpace=wrap;html=1;" vertex="1" parent="fGiNE6eSNNukwTCs-IcG-94">
          <mxGeometry y="150" width="140" height="30" as="geometry" />
        </mxCell>
        <mxCell id="fGiNE6eSNNukwTCs-IcG-102" value="" style="edgeStyle=entityRelationEdgeStyle;fontSize=12;html=1;endArrow=ERoneToMany;startArrow=ERoneToMany;rounded=0;entryX=1;entryY=0.5;entryDx=0;entryDy=0;exitX=0;exitY=0.5;exitDx=0;exitDy=0;" edge="1" parent="1" source="fGiNE6eSNNukwTCs-IcG-60" target="fGiNE6eSNNukwTCs-IcG-54">
          <mxGeometry width="100" height="100" relative="1" as="geometry">
            <mxPoint x="880" y="1460" as="sourcePoint" />
            <mxPoint x="980" y="1360" as="targetPoint" />
          </mxGeometry>
        </mxCell>
        <mxCell id="fGiNE6eSNNukwTCs-IcG-104" value="" style="edgeStyle=entityRelationEdgeStyle;fontSize=12;html=1;endArrow=ERoneToMany;startArrow=ERoneToMany;rounded=0;entryX=1;entryY=0.5;entryDx=0;entryDy=0;exitX=0;exitY=0.5;exitDx=0;exitDy=0;" edge="1" parent="1" source="fGiNE6eSNNukwTCs-IcG-52" target="fGiNE6eSNNukwTCs-IcG-67">
          <mxGeometry width="100" height="100" relative="1" as="geometry">
            <mxPoint x="780" y="1380" as="sourcePoint" />
            <mxPoint x="880" y="1280" as="targetPoint" />
          </mxGeometry>
        </mxCell>
        <mxCell id="fGiNE6eSNNukwTCs-IcG-105" value="" style="edgeStyle=entityRelationEdgeStyle;fontSize=12;html=1;endArrow=ERoneToMany;rounded=0;entryX=1;entryY=0.5;entryDx=0;entryDy=0;exitX=0;exitY=0.5;exitDx=0;exitDy=0;" edge="1" parent="1" source="fGiNE6eSNNukwTCs-IcG-96" target="fGiNE6eSNNukwTCs-IcG-52">
          <mxGeometry width="100" height="100" relative="1" as="geometry">
            <mxPoint x="780" y="1380" as="sourcePoint" />
            <mxPoint x="880" y="1280" as="targetPoint" />
            <Array as="points">
              <mxPoint x="1030" y="1420" />
              <mxPoint x="1020" y="1420" />
            </Array>
          </mxGeometry>
        </mxCell>
        <mxCell id="fGiNE6eSNNukwTCs-IcG-106" value="" style="edgeStyle=entityRelationEdgeStyle;fontSize=12;html=1;endArrow=ERoneToMany;rounded=0;entryX=0;entryY=0.5;entryDx=0;entryDy=0;exitX=1;exitY=0.5;exitDx=0;exitDy=0;" edge="1" parent="1" source="fGiNE6eSNNukwTCs-IcG-91" target="fGiNE6eSNNukwTCs-IcG-72">
          <mxGeometry width="100" height="100" relative="1" as="geometry">
            <mxPoint x="780" y="1450" as="sourcePoint" />
            <mxPoint x="880" y="1350" as="targetPoint" />
          </mxGeometry>
        </mxCell>
        <mxCell id="fGiNE6eSNNukwTCs-IcG-107" value="" style="edgeStyle=entityRelationEdgeStyle;fontSize=12;html=1;endArrow=ERmany;startArrow=ERmany;rounded=0;exitX=1;exitY=0.5;exitDx=0;exitDy=0;entryX=0;entryY=0.5;entryDx=0;entryDy=0;" edge="1" parent="1" source="fGiNE6eSNNukwTCs-IcG-90" target="fGiNE6eSNNukwTCs-IcG-52">
          <mxGeometry width="100" height="100" relative="1" as="geometry">
            <mxPoint x="750" y="1410" as="sourcePoint" />
            <mxPoint x="850" y="1310" as="targetPoint" />
          </mxGeometry>
        </mxCell>
      </root>
    </mxGraphModel>
  </diagram>
</mxfile>
